<svg width="364" height="42" viewBox="0 0 364 42" fill="none" xmlns="http://www.w3.org/2000/svg">
<path d="M11.84 29.24C11.84 30.8133 10.3067 31.6 7.24 31.6C6.57333 31.6 6.17333 31.2667 6.04 30.6C5.93333 29.9067 5.88 29.0533 5.88 28.04C5.88 27.0267 5.94667 25.9467 6.08 24.8C6.24 23.6267 6.44 22.36 6.68 21C7.13333 18.3867 7.77333 15.5733 8.6 12.56C9.45333 9.52 10.2933 7.17333 11.12 5.52C9.44 5.62667 7.77333 5.93333 6.12 6.44C4.46667 6.92 3.29333 7.26667 2.6 7.48C1.90667 7.66667 1.33333 7.76 0.88 7.76C0.426667 7.76 0.2 7.61333 0.2 7.32C0.2 6.97333 0.466667 6.46667 1 5.8C1.53333 5.10667 2.29333 4.41333 3.28 3.72C5.78667 2.01333 8.57333 1.14666 11.64 1.12L24.8 1.24C25.52 1.24 25.88 1.52 25.88 2.08C25.88 2.24 25.7733 2.53333 25.56 2.96C25.3467 3.36 25.16 3.8 25 4.28C24.6533 5.24 23.92 5.72 22.8 5.72C21.7067 5.72 19.08 5.64 14.92 5.48C14.8133 6.65333 14.6 8.16 14.28 10C13.96 11.8133 13.6133 13.8 13.24 15.96C12.3333 21.48 11.8667 25.9067 11.84 29.24ZM29.5981 26.64C31.6781 26.64 33.6915 25.8133 35.6381 24.16C36.3581 23.5467 36.9448 22.9867 37.3981 22.48C37.8515 21.9467 38.1981 21.68 38.4381 21.68C38.8115 21.68 38.9981 22.0533 38.9981 22.8C38.9981 23.5467 38.7981 24.3867 38.3981 25.32C37.9981 26.2267 37.3315 27.12 36.3981 28C34.1048 30.16 30.9581 31.24 26.9581 31.24C23.7848 31.24 21.6248 30.0933 20.4781 27.8C20.0781 27 19.8781 25.8533 19.8781 24.36C19.8781 22.8667 20.1715 21.32 20.7581 19.72C21.3448 18.0933 22.1181 16.6933 23.0781 15.52C24.0648 14.3467 25.1981 13.44 26.4781 12.8C27.7581 12.1333 29.1181 11.8 30.5581 11.8C32.0248 11.8 33.1448 12.16 33.9181 12.88C34.7181 13.6 35.1181 14.5333 35.1181 15.68C35.1181 16.8267 34.8248 17.7733 34.2381 18.52C33.6781 19.24 32.9448 19.8533 32.0381 20.36C31.1315 20.84 30.1181 21.28 28.9981 21.68C27.9048 22.0533 26.8248 22.48 25.7581 22.96V23.96C25.7848 24.92 26.1848 25.6 26.9581 26C27.7315 26.4 28.6115 26.6133 29.5981 26.64ZM28.9181 15.36C27.5315 15.36 26.5715 16.9733 26.0381 20.2C26.5981 19.8267 27.1181 19.4933 27.5981 19.2C28.1048 18.9067 28.5448 18.6267 28.9181 18.36C29.7181 17.7733 30.1315 17.1067 30.1581 16.36C30.1581 15.6933 29.7448 15.36 28.9181 15.36ZM61.5569 21.56C62.0369 21.56 62.2769 22.1733 62.2769 23.4C62.2769 24.0667 61.9969 24.88 61.4369 25.84C60.8769 26.7733 60.1435 27.64 59.2369 28.44C58.3569 29.2133 57.3702 29.8533 56.2769 30.36C55.1835 30.8667 54.1169 31.12 53.0769 31.12C51.6635 31.12 50.7169 29.88 50.2369 27.4C49.5435 28.5467 48.6369 29.4933 47.5169 30.24C46.3969 30.96 44.8902 31.32 42.9969 31.32C41.1302 31.32 39.6235 30.7333 38.4769 29.56C37.3302 28.3867 36.7702 26.96 36.7969 25.28C36.7969 20.7467 38.3035 17.1733 41.3169 14.56C42.5969 13.4667 43.7835 12.7467 44.8769 12.4C45.9969 12.0533 47.1702 11.88 48.3969 11.88C49.6235 11.88 50.6235 12.0933 51.3969 12.52C51.7702 11.7467 52.1969 11.36 52.6769 11.36C53.6102 11.36 54.4902 11.7733 55.3169 12.6C56.1702 13.4 56.5969 14.16 56.5969 14.88C56.2235 15.76 55.6769 16.8133 54.9569 18.04C54.7435 19.2667 54.6369 20.9867 54.6369 23.2C54.6369 25.4133 54.9169 26.52 55.4769 26.52C56.1702 26.52 57.8502 25.1333 60.5169 22.36C60.9969 21.8267 61.3435 21.56 61.5569 21.56ZM42.6769 23.96C42.6769 26.0133 43.4369 27.04 44.9569 27.04C46.5835 27.0133 47.9302 26.1467 48.9969 24.44C49.3702 23.8533 49.6769 23.1333 49.9169 22.28C49.9169 19.2933 50.1835 16.7333 50.7169 14.6C48.5569 15.0267 46.6769 16.0667 45.0769 17.72C43.4769 19.3733 42.6769 21.4533 42.6769 23.96ZM82.1981 18.84C82.1981 17.96 81.6915 17.52 80.6781 17.52C79.9848 17.52 79.2115 18.2 78.3581 19.56C77.5048 20.8933 76.8915 22.3333 76.5181 23.88V23.96C76.5181 24.8667 76.6515 25.8 76.9181 26.76C77.2115 27.72 77.3581 28.3867 77.3581 28.76C77.3581 29.6667 76.2248 30.56 73.9581 31.44C73.6115 31.5733 73.3048 31.64 73.0381 31.64C72.3715 31.64 71.9048 31.2933 71.6381 30.6C71.3981 29.9067 71.2781 28.9733 71.2781 27.8C71.2781 26.6 71.3048 25.48 71.3581 24.44C71.4381 23.3733 71.5048 22.4 71.5581 21.52C71.6381 20.6133 71.7048 19.8267 71.7581 19.16C71.8381 18.4667 71.8781 17.9067 71.8781 17.48C71.8781 16.5733 71.4648 16.12 70.6381 16.12C69.8115 16.12 68.8515 17.0933 67.7581 19.04C66.6648 20.96 66.1181 22.4933 66.1181 23.64C66.1181 24.76 66.2515 25.8 66.5181 26.76C66.8115 27.72 66.9581 28.3867 66.9581 28.76C66.9581 29.6667 65.8248 30.56 63.5581 31.44C63.2115 31.5733 62.9048 31.64 62.6381 31.64C61.9715 31.64 61.5048 31.2933 61.2381 30.6C60.9981 29.9067 60.8781 28.84 60.8781 27.4C60.8781 23.6133 61.0248 20.88 61.3181 19.2C61.7181 16.72 62.6248 14.3733 64.0381 12.16C64.5181 11.4133 65.0381 11.04 65.5981 11.04C66.4781 11.04 67.2915 11.76 68.0381 13.2C68.2515 13.5733 68.4115 13.92 68.5181 14.24C69.7981 12.64 71.3048 11.84 73.0381 11.84C74.1848 11.84 75.2115 12.2267 76.1181 13C77.0248 13.7467 77.4781 14.6933 77.4781 15.84V16.28C79.1048 14.2533 81.0915 13.24 83.4381 13.24C84.8781 13.24 85.9715 13.6133 86.7181 14.36C87.4648 15.1067 87.8381 16.0267 87.8381 17.12C87.8381 18.2133 87.7581 19.2 87.5981 20.08C87.4381 20.96 87.2515 21.7867 87.0381 22.56C86.8515 23.3333 86.6781 24.0267 86.5181 24.64C86.3581 25.2267 86.2781 25.6933 86.2781 26.04C86.2781 26.36 86.3848 26.52 86.5981 26.52C86.9981 26.52 87.4915 26.2667 88.0781 25.76C88.6648 25.2533 89.2515 24.7067 89.8381 24.12C90.4248 23.5067 90.9581 22.9467 91.4381 22.44C91.9448 21.9333 92.2915 21.68 92.4781 21.68C92.8515 21.68 93.0381 22.1333 93.0381 23.04C93.0381 24.9067 92.0915 26.72 90.1981 28.48C88.3315 30.24 86.3315 31.12 84.1981 31.12C82.2781 31.12 81.3181 29.3733 81.3181 25.88C81.3181 25 81.4648 23.7867 81.7581 22.24C82.0515 20.6933 82.1981 19.56 82.1981 18.84ZM97.3403 13.4C97.3403 15.1867 97.0203 17.2133 96.3803 19.48C96.4336 20.3333 96.4603 21.16 96.4603 21.96C96.5136 23.6667 96.727 24.84 97.1003 25.48C97.367 25.8267 97.7136 26 98.1403 26C98.967 26 99.9936 25.4133 101.22 24.24C100.287 22.0267 99.8203 20.0267 99.8203 18.24C99.8203 14.5867 101.54 12.76 104.98 12.76C106.154 12.76 107.127 13.1067 107.9 13.8C108.7 14.4667 109.1 15.3067 109.1 16.32C109.1 18.4533 107.914 21.0133 105.54 24C106.527 25.1733 107.327 25.8533 107.94 26.04C108.82 26.04 110.14 24.4133 111.9 21.16C111.58 19.96 111.42 18.84 111.42 17.8C111.42 15.9067 111.714 14.52 112.3 13.64C113.02 12.52 114.207 11.96 115.86 11.96C117.54 11.96 118.487 12.64 118.7 14C118.754 14.4 118.78 14.8267 118.78 15.28C118.78 16.9867 117.834 19.3467 115.94 22.36C116.607 23.32 117.234 23.8933 117.82 24.08C119.047 24.08 120.087 23.6667 120.94 22.84C121.26 22.5467 121.527 22.28 121.74 22.04C121.98 21.7733 122.22 21.64 122.46 21.64C122.834 21.64 123.02 22.08 123.02 22.96C123.02 24.5867 122.54 25.7867 121.58 26.56C120.62 27.3333 119.367 27.72 117.82 27.72C116.274 27.72 114.927 26.9733 113.78 25.48C112.394 27.2933 111.247 28.56 110.34 29.28C108.687 30.64 107.394 31.32 106.46 31.32C106.007 31.32 105.42 30.9467 104.7 30.2C104.007 29.4267 103.314 28.4267 102.62 27.2C101.34 28.4 100.074 29.3867 98.8203 30.16C97.567 30.9333 96.5136 31.32 95.6603 31.32C94.1136 31.32 92.807 27.96 91.7403 21.24C91.367 18.9467 91.1803 17.3733 91.1803 16.52C91.2336 14.76 91.4736 13.5333 91.9003 12.84C92.487 11.9867 93.6336 11.56 95.3403 11.56C95.9803 11.56 96.4736 11.76 96.8203 12.16C97.167 12.5333 97.3403 12.9467 97.3403 13.4ZM104.18 20.6C105.06 19.24 105.5 18.16 105.5 17.36C105.5 16.5333 105.22 16.12 104.66 16.12C104.287 16.12 104.047 16.3333 103.94 16.76C103.86 17.16 103.82 17.6933 103.82 18.36C103.82 19.0267 103.94 19.7733 104.18 20.6ZM137.376 27.6C135.269 30.08 132.736 31.32 129.776 31.32C126.842 31.32 124.642 30.5733 123.176 29.08C121.709 27.56 120.989 25.68 121.016 23.44C120.989 20.2667 121.989 17.5333 124.016 15.24C126.042 12.9467 128.696 11.8 131.976 11.8C133.469 11.8 134.669 11.9867 135.576 12.36C137.149 13 137.936 13.6 137.936 14.16C137.936 14.5867 136.829 14.8133 134.616 14.84C132.429 14.84 130.589 15.6 129.096 17.12C127.629 18.6133 126.896 20.5067 126.896 22.8C126.896 24 127.242 25.0133 127.936 25.84C128.656 26.64 129.656 27.04 130.936 27.04C132.242 27.04 133.322 26.7733 134.176 26.24C132.282 24.96 131.336 23.1067 131.336 20.68C131.309 19.4 131.762 18.24 132.696 17.2C133.656 16.1333 134.869 15.6 136.336 15.6C137.829 15.5733 138.896 15.9733 139.536 16.8C140.176 17.6267 140.496 18.6933 140.496 20C140.496 21.28 140.189 22.64 139.576 24.08H139.816C140.989 24.0533 142.002 23.64 142.856 22.84C143.176 22.52 143.442 22.24 143.656 22C143.896 21.76 144.136 21.64 144.376 21.64C144.749 21.64 144.936 22.08 144.936 22.96C144.936 24.5867 144.456 25.8133 143.496 26.64C142.536 27.44 141.469 27.84 140.296 27.84C139.149 27.84 138.176 27.76 137.376 27.6ZM137.016 22.96C137.469 22 137.696 21.0667 137.696 20.16C137.696 19.2533 137.402 18.8 136.816 18.8C136.576 18.8 136.376 18.9733 136.216 19.32C136.056 19.6667 135.976 20 135.976 20.32C135.976 21.3867 136.322 22.2667 137.016 22.96ZM148.774 24.28L149.014 29.16C149.014 29.8 148.681 30.3733 148.014 30.88C147.348 31.3867 146.441 31.64 145.294 31.64C144.628 31.64 144.161 31.2933 143.894 30.6C143.654 29.9067 143.534 28.8933 143.534 27.56C143.534 24.76 143.668 22.5733 143.934 21C144.228 19.4 144.788 17.7867 145.614 16.16C144.388 14.9867 143.774 13.9733 143.774 13.12C143.774 11.3333 144.734 10.44 146.654 10.44C147.641 10.44 148.508 10.96 149.254 12C149.788 12.72 150.174 13.56 150.414 14.52C150.788 14.6533 151.254 14.72 151.814 14.72C152.588 14.72 153.481 14.4667 154.494 13.96L155.534 13.44C155.854 13.28 156.134 13.2 156.374 13.2C157.148 13.2 157.921 14.3333 158.694 16.6C158.454 17.64 158.188 18.64 157.894 19.6C157.628 20.56 157.308 21.72 156.934 23.08C156.561 24.44 156.361 25.36 156.334 25.84C156.334 26.2933 156.481 26.52 156.774 26.52C157.174 26.52 157.668 26.2667 158.254 25.76C158.841 25.2533 159.428 24.7067 160.014 24.12C160.601 23.5067 161.134 22.9467 161.614 22.44C162.121 21.9333 162.468 21.68 162.654 21.68C163.028 21.68 163.214 22.1333 163.214 23.04C163.214 24.88 162.401 26.6933 160.774 28.48C159.174 30.2667 157.334 31.1467 155.254 31.12C154.028 31.12 153.108 30.6267 152.494 29.64C151.881 28.6533 151.561 27.4533 151.534 26.04C151.534 23.24 152.161 20.5867 153.414 18.08C152.828 18.32 152.161 18.44 151.414 18.44C150.694 18.44 150.174 18.4133 149.854 18.36C149.614 19.3733 149.374 20.4 149.134 21.44C148.894 22.4533 148.774 23.4 148.774 24.28ZM172.896 22.24C173.616 25.0933 174.829 26.52 176.536 26.52C177.362 26.52 178.109 26.2667 178.776 25.76C179.442 25.2533 180.042 24.7067 180.576 24.12C181.109 23.5067 181.576 22.9467 181.976 22.44C182.376 21.9333 182.749 21.68 183.096 21.68C183.442 21.68 183.616 22.1333 183.616 23.04C183.616 24.9333 182.736 26.76 180.976 28.52C179.216 30.28 177.242 31.1467 175.056 31.12C172.896 31.12 170.962 29.2133 169.256 25.4C168.776 24.3333 168.322 23.2533 167.896 22.16L167.616 27.64C167.616 28.1467 167.589 28.6533 167.536 29.16C167.482 29.64 167.256 30.04 166.856 30.36C165.816 31.1867 164.762 31.6 163.696 31.6C162.442 31.6 161.816 30.3067 161.816 27.72C161.816 23.9867 162.256 20.08 163.136 16C164.016 11.92 164.869 8.85333 165.696 6.8C166.549 4.72 167.202 3.33333 167.656 2.64C168.136 1.94667 168.509 1.52 168.776 1.36C169.042 1.2 169.336 1.12 169.656 1.12C170.002 1.12 170.362 1.29333 170.736 1.64C171.109 1.96 171.509 2.46666 171.936 3.16C172.362 3.82667 172.576 4.49333 172.576 5.16C172.602 5.8 172.496 6.44 172.256 7.08C172.042 7.69333 171.749 8.30666 171.376 8.92C171.002 9.50667 170.589 10.12 170.136 10.76C169.682 11.3733 169.229 12.04 168.776 12.76L168.376 16.12C169.309 14.1733 170.682 12.8667 172.496 12.2C173.136 11.96 173.882 11.84 174.736 11.84C176.442 11.84 177.749 12.2533 178.656 13.08C179.562 13.88 180.016 15.0667 180.016 16.64C180.016 18.2133 179.229 19.5467 177.656 20.64C176.082 21.7333 174.496 22.2667 172.896 22.24ZM174.416 17.56C174.416 16.6 173.869 16.12 172.776 16.12C171.682 16.12 170.496 17.1733 169.216 19.28C168.842 19.8933 168.522 20.52 168.256 21.16C171.029 21 172.922 20.2533 173.936 18.92C174.256 18.4933 174.416 18.04 174.416 17.56ZM236.982 21.56C237.435 21.56 237.662 22.1733 237.662 23.4C237.662 24.0667 237.382 24.88 236.822 25.84C236.262 26.7733 235.529 27.64 234.622 28.44C233.742 29.2133 232.755 29.8533 231.662 30.36C230.569 30.8667 229.409 31.12 228.182 31.12C226.982 31.12 226.035 30.7333 225.342 29.96C224.675 29.16 224.342 28.28 224.342 27.32C224.342 26.3333 224.502 25.2267 224.822 24C225.142 22.7733 225.489 21.4933 225.862 20.16C226.875 16.6133 227.395 14.12 227.422 12.68C227.422 12.0667 227.342 11.6 227.182 11.28C227.022 10.9333 226.715 10.76 226.262 10.76C225.462 10.76 224.609 11.24 223.702 12.2C222.795 13.16 221.942 14.3867 221.142 15.88C219.302 19.2933 218.329 22.6267 218.222 25.88C218.275 26.2533 218.329 26.6267 218.382 27C218.435 27.3733 218.462 27.7733 218.462 28.2C218.462 29.0533 218.035 29.84 217.182 30.56C216.355 31.2533 215.422 31.6 214.382 31.6C213.769 31.6 213.315 31.3067 213.022 30.72C212.729 30.1067 212.582 29.36 212.582 28.48C212.582 27.6 212.782 26.4 213.182 24.88C213.582 23.36 214.022 21.7467 214.502 20.04C215.782 15.5333 216.435 12.1733 216.462 9.96C216.462 8.84 216.315 7.96 216.022 7.32C215.755 6.68 215.222 6.36 214.422 6.36C212.982 6.36 211.555 7.38666 210.142 9.44C208.729 11.4933 207.462 14.68 206.342 19C206.049 20.12 205.822 21.0933 205.662 21.92L205.622 22.68C206.129 25.1333 206.382 26.7333 206.382 27.48C206.382 29.0267 205.835 30.0667 204.742 30.6C204.235 30.84 203.742 31.0667 203.262 31.28C202.809 31.4933 202.315 31.6 201.782 31.6C200.449 31.6 199.782 30.3333 199.782 27.8C199.782 25.24 200.489 20.2533 201.902 12.84C202.409 10.1733 202.662 8.68 202.662 8.36C202.662 6.2 202.115 5.12 201.022 5.12C200.649 5.12 200.302 5.22667 199.982 5.44C199.689 5.65333 199.382 5.88 199.062 6.12C198.769 6.36 198.462 6.58667 198.142 6.8C197.822 7.01333 197.449 7.12 197.022 7.12C196.622 7.12 196.422 6.76 196.422 6.04C196.422 4.57333 197.102 3.37333 198.462 2.44C199.769 1.48 201.355 0.999998 203.222 0.999998C205.622 0.999998 207.035 2.12 207.462 4.36C207.569 5.02667 207.649 5.73333 207.702 6.48C209.675 2.77333 212.169 0.919999 215.182 0.919999C218.462 0.919999 220.342 2.49333 220.822 5.64C220.982 6.54667 221.049 7.52 221.022 8.56V8.88C222.755 6.48 224.809 5.28 227.182 5.28C230.542 5.28 232.222 7.30667 232.222 11.36C232.222 13.12 231.942 15.1867 231.382 17.56C230.849 19.9067 230.449 21.6 230.182 22.64C229.942 23.6533 229.822 24.44 229.822 25C229.822 26.0133 230.169 26.52 230.862 26.52C231.582 26.52 233.275 25.1333 235.942 22.36C236.422 21.8267 236.769 21.56 236.982 21.56ZM260.229 21.56C260.709 21.56 260.949 22.1733 260.949 23.4C260.949 24.0667 260.669 24.88 260.109 25.84C259.549 26.7733 258.815 27.64 257.909 28.44C257.029 29.2133 256.042 29.8533 254.949 30.36C253.855 30.8667 252.789 31.12 251.749 31.12C250.335 31.12 249.389 29.88 248.909 27.4C248.215 28.5467 247.309 29.4933 246.189 30.24C245.069 30.96 243.562 31.32 241.669 31.32C239.802 31.32 238.295 30.7333 237.149 29.56C236.002 28.3867 235.442 26.96 235.469 25.28C235.469 20.7467 236.975 17.1733 239.989 14.56C241.269 13.4667 242.455 12.7467 243.549 12.4C244.669 12.0533 245.842 11.88 247.069 11.88C248.295 11.88 249.295 12.0933 250.069 12.52C250.442 11.7467 250.869 11.36 251.349 11.36C252.282 11.36 253.162 11.7733 253.989 12.6C254.842 13.4 255.269 14.16 255.269 14.88C254.895 15.76 254.349 16.8133 253.629 18.04C253.415 19.2667 253.309 20.9867 253.309 23.2C253.309 25.4133 253.589 26.52 254.149 26.52C254.842 26.52 256.522 25.1333 259.189 22.36C259.669 21.8267 260.015 21.56 260.229 21.56ZM241.349 23.96C241.349 26.0133 242.109 27.04 243.629 27.04C245.255 27.0133 246.602 26.1467 247.669 24.44C248.042 23.8533 248.349 23.1333 248.589 22.28C248.589 19.2933 248.855 16.7333 249.389 14.6C247.229 15.0267 245.349 16.0667 243.749 17.72C242.149 19.3733 241.349 21.4533 241.349 23.96ZM264.27 11.04C265.23 11.04 266.137 11.96 266.99 13.8C268.243 12.4933 269.79 11.84 271.63 11.84C273.497 11.84 274.897 12.2533 275.83 13.08C276.763 13.88 277.23 15.0267 277.23 16.52C277.23 17.9867 277.03 19.48 276.63 21C276.257 22.52 275.977 23.6133 275.79 24.28C275.63 24.92 275.55 25.4533 275.55 25.88C275.55 26.3067 275.697 26.52 275.99 26.52C276.39 26.52 276.883 26.2667 277.47 25.76C278.057 25.2533 278.643 24.7067 279.23 24.12C279.817 23.5067 280.35 22.9467 280.83 22.44C281.337 21.9333 281.683 21.68 281.87 21.68C282.243 21.68 282.43 22.1333 282.43 23.04C282.43 24.9067 281.51 26.7067 279.67 28.44C276.577 30.2533 274.603 31.16 273.75 31.16C273.67 31.16 273.617 31.1467 273.59 31.12C271.457 31.12 270.39 29.4133 270.39 26C270.39 24.5333 270.523 23.1867 270.79 21.96C271.083 20.7333 271.297 19.84 271.43 19.28C271.563 18.72 271.63 18.1467 271.63 17.56C271.63 16.6 271.07 16.12 269.95 16.12C268.857 16.12 267.803 16.9467 266.79 18.6C265.803 20.2267 265.137 21.92 264.79 23.68V23.96C264.79 24.8667 264.923 25.8 265.19 26.76C265.483 27.72 265.63 28.3867 265.63 28.76C265.63 29.6667 264.497 30.56 262.23 31.44C261.883 31.5733 261.577 31.64 261.31 31.64C260.643 31.64 260.177 31.2933 259.91 30.6C259.67 29.9067 259.55 28.8267 259.55 27.36C259.55 23.5733 259.697 20.84 259.99 19.16C260.39 16.6533 261.297 14.32 262.71 12.16C263.19 11.4133 263.71 11.04 264.27 11.04ZM304.994 21.56C305.474 21.56 305.714 22.1733 305.714 23.4C305.714 24.0667 305.434 24.88 304.874 25.84C304.314 26.7733 303.581 27.64 302.674 28.44C301.794 29.2133 300.808 29.8533 299.714 30.36C298.621 30.8667 297.554 31.12 296.514 31.12C295.101 31.12 294.154 29.88 293.674 27.4C292.981 28.5467 292.074 29.4933 290.954 30.24C289.834 30.96 288.328 31.32 286.434 31.32C284.568 31.32 283.061 30.7333 281.914 29.56C280.768 28.3867 280.208 26.96 280.234 25.28C280.234 20.7467 281.741 17.1733 284.754 14.56C286.034 13.4667 287.221 12.7467 288.314 12.4C289.434 12.0533 290.608 11.88 291.834 11.88C293.061 11.88 294.061 12.0933 294.834 12.52C295.208 11.7467 295.634 11.36 296.114 11.36C297.048 11.36 297.928 11.7733 298.754 12.6C299.608 13.4 300.034 14.16 300.034 14.88C299.661 15.76 299.114 16.8133 298.394 18.04C298.181 19.2667 298.074 20.9867 298.074 23.2C298.074 25.4133 298.354 26.52 298.914 26.52C299.608 26.52 301.288 25.1333 303.954 22.36C304.434 21.8267 304.781 21.56 304.994 21.56ZM286.114 23.96C286.114 26.0133 286.874 27.04 288.394 27.04C290.021 27.0133 291.368 26.1467 292.434 24.44C292.808 23.8533 293.114 23.1333 293.354 22.28C293.354 19.2933 293.621 16.7333 294.154 14.6C291.994 15.0267 290.114 16.0667 288.514 17.72C286.914 19.3733 286.114 21.4533 286.114 23.96ZM319.036 12.8C319.409 11.6267 320.009 11.04 320.836 11.04C321.582 11.0667 322.289 11.6 322.956 12.64C323.622 13.6533 323.956 14.44 323.956 15C323.902 16.0933 323.569 17.84 322.956 20.24C322.342 22.6133 321.476 25.7067 320.356 29.52C322.116 28.16 323.849 26.3867 325.556 24.2C326.142 23.4533 326.636 22.8533 327.036 22.4C327.462 21.92 327.809 21.68 328.076 21.68C328.449 21.68 328.636 22.1067 328.636 22.96C328.636 24.64 327.689 26.6 325.796 28.84C323.929 31.08 321.636 32.8267 318.916 34.08C318.596 35.1467 318.249 36.16 317.876 37.12C317.502 38.08 317.022 38.92 316.436 39.64C315.156 41.1867 313.209 41.96 310.596 41.96C308.836 41.96 307.329 41.4533 306.076 40.44C304.849 39.4267 304.236 38.16 304.236 36.64C304.236 35.8133 304.502 35.16 305.036 34.68C305.596 34.2 306.356 33.8133 307.316 33.52C308.276 33.2267 309.396 32.9733 310.676 32.76C311.982 32.5467 313.369 32.28 314.836 31.96C314.969 31.5067 315.076 31.0667 315.156 30.64C315.262 30.1867 315.369 29.7333 315.476 29.28C314.009 30.64 312.209 31.32 310.076 31.32C307.969 31.32 306.342 30.7333 305.196 29.56C304.049 28.3867 303.489 26.96 303.516 25.28C303.516 20.7467 305.022 17.1733 308.036 14.56C310.116 12.7733 312.276 11.88 314.516 11.88C315.289 11.88 316.116 11.9733 316.996 12.16C317.902 12.3467 318.582 12.56 319.036 12.8ZM309.396 23.96C309.396 26.0133 310.156 27.04 311.676 27.04C312.529 27.04 313.396 26.72 314.276 26.08C315.156 25.44 315.862 24.4 316.396 22.96C316.796 21.0933 317.209 19.3733 317.636 17.8C318.089 16.2267 318.396 15.1333 318.556 14.52C316.316 14.8133 314.222 15.8133 312.276 17.52C310.356 19.2267 309.396 21.3733 309.396 23.96ZM313.596 35.64C312.636 35.8267 311.796 35.9733 311.076 36.08C310.356 36.1867 309.756 36.28 309.276 36.36C308.822 36.44 308.476 36.5333 308.236 36.64C308.022 36.7467 307.916 36.92 307.916 37.16C307.916 37.64 308.209 38.0533 308.796 38.4C309.409 38.7467 310.009 38.9067 310.596 38.88C311.609 38.88 312.609 37.8 313.596 35.64ZM335.965 26.64C338.045 26.64 340.059 25.8133 342.005 24.16C342.725 23.5467 343.312 22.9867 343.765 22.48C344.219 21.9467 344.565 21.68 344.805 21.68C345.179 21.68 345.365 22.0533 345.365 22.8C345.365 23.5467 345.165 24.3867 344.765 25.32C344.365 26.2267 343.699 27.12 342.765 28C340.472 30.16 337.325 31.24 333.325 31.24C330.152 31.24 327.992 30.0933 326.845 27.8C326.445 27 326.245 25.8533 326.245 24.36C326.245 22.8667 326.539 21.32 327.125 19.72C327.712 18.0933 328.485 16.6933 329.445 15.52C330.432 14.3467 331.565 13.44 332.845 12.8C334.125 12.1333 335.485 11.8 336.925 11.8C338.392 11.8 339.512 12.16 340.285 12.88C341.085 13.6 341.485 14.5333 341.485 15.68C341.485 16.8267 341.192 17.7733 340.605 18.52C340.045 19.24 339.312 19.8533 338.405 20.36C337.499 20.84 336.485 21.28 335.365 21.68C334.272 22.0533 333.192 22.48 332.125 22.96V23.96C332.152 24.92 332.552 25.6 333.325 26C334.099 26.4 334.979 26.6133 335.965 26.64ZM335.285 15.36C333.899 15.36 332.939 16.9733 332.405 20.2C332.965 19.8267 333.485 19.4933 333.965 19.2C334.472 18.9067 334.912 18.6267 335.285 18.36C336.085 17.7733 336.499 17.1067 336.525 16.36C336.525 15.6933 336.112 15.36 335.285 15.36ZM349.204 24.28L349.444 29.16C349.444 29.8 349.111 30.3733 348.444 30.88C347.777 31.3867 346.871 31.64 345.724 31.64C345.057 31.64 344.591 31.2933 344.324 30.6C344.084 29.9067 343.964 28.8933 343.964 27.56C343.964 24.76 344.097 22.5733 344.364 21C344.657 19.4 345.217 17.7867 346.044 16.16C344.817 14.9867 344.204 13.9733 344.204 13.12C344.204 11.3333 345.164 10.44 347.084 10.44C348.071 10.44 348.937 10.96 349.684 12C350.217 12.72 350.604 13.56 350.844 14.52C351.217 14.6533 351.684 14.72 352.244 14.72C353.017 14.72 353.911 14.4667 354.924 13.96L355.964 13.44C356.284 13.28 356.564 13.2 356.804 13.2C357.577 13.2 358.351 14.3333 359.124 16.6C358.884 17.64 358.617 18.64 358.324 19.6C358.057 20.56 357.737 21.72 357.364 23.08C356.991 24.44 356.791 25.36 356.764 25.84C356.764 26.2933 356.911 26.52 357.204 26.52C357.604 26.52 358.097 26.2667 358.684 25.76C359.271 25.2533 359.857 24.7067 360.444 24.12C361.031 23.5067 361.564 22.9467 362.044 22.44C362.551 21.9333 362.897 21.68 363.084 21.68C363.457 21.68 363.644 22.1333 363.644 23.04C363.644 24.88 362.831 26.6933 361.204 28.48C359.604 30.2667 357.764 31.1467 355.684 31.12C354.457 31.12 353.537 30.6267 352.924 29.64C352.311 28.6533 351.991 27.4533 351.964 26.04C351.964 23.24 352.591 20.5867 353.844 18.08C353.257 18.32 352.591 18.44 351.844 18.44C351.124 18.44 350.604 18.4133 350.284 18.36C350.044 19.3733 349.804 20.4 349.564 21.44C349.324 22.4533 349.204 23.4 349.204 24.28Z" fill="black"/>
</svg>
